# xmcd
#
# Track frame offsets:
#	150
#	13927
#	25372
#	39932
#	51242
#	65275
#	75582
#	87675
#	100140
#	113790
#	123750
#	137082
#	147965
#	160810
#
# Disc length: 2291 seconds
#
# Revision: 1
# Processed by: cddbd v1.5.1PL0 Copyright (c) Steve Scherf et al.
# Submitted via: audiograbber 1.83.01
#
DISCID=b708f10e
DTITLE=Willie Nelson - 437-My Kind Of Music
DYEAR=1900
DGENRE=Country
TTITLE0=Funny How Time Slips Away
TTITLE1=Night Life
TTITLE2=Yesterdays Wine
TTITLE3=Crazy Arms
TTITLE4=Rainy Day Blues
TTITLE5=San Antonio Rose
TTITLE6=Born To lose
TTITLE7=Just Can't Let you Say Goodbye
TTITLE8=Don't You Ever Get Tired
TTITLE9=Hello Walls
TTITLE10=Help Me Make It through The Night
TTITLE11=I'm So Lonesome I Could Cry
TTITLE12=Crazy
TTITLE13=The Party's Over
EXTD=
EXTT0=
EXTT1=
EXTT2=
EXTT3=
EXTT4=
EXTT5=
EXTT6=
EXTT7=
EXTT8=
EXTT9=
EXTT10=
EXTT11=
EXTT12=
EXTT13=
PLAYORDER=
